<?xml version="1.0" encoding="UTF-8"?>
<svg xmlns="http://www.w3.org/2000/svg" version="1.1" viewBox="0 0 16 16">
  <defs>
    <style>
      .cls-1 {
        fill: #fff;
      }

      .cls-2 {
        opacity: .5;
      }
    </style>
  </defs>
  <!-- Generator: Adobe Illustrator 28.6.0, SVG Export Plug-In . SVG Version: 1.2.0 Build 709)  -->
  <g>
    <g id="Layer_1">
      <g>
        <g class="cls-2">
          <path class="cls-1" d="M10.81,11.56c-.32,0-.59-.21-.76-.37-.1-.1-.1-.26,0-.35.17-.16.44-.37.76-.37.51,0,1.86.24,1.86.54s-1.36.54-1.86.54Z"/>
        </g>
        <g class="cls-2">
          <path class="cls-1" d="M10.81,13.66c-.32,0-.59-.21-.76-.37-.1-.1-.1-.25,0-.35.17-.16.44-.37.76-.37.51,0,1.86.24,1.86.54s-1.36.54-1.86.54Z"/>
        </g>
        <g class="cls-2">
          <rect class="cls-1" x="3.44" y="10.47" width="5.7" height="1.09" rx=".23" ry=".23"/>
        </g>
        <g class="cls-2">
          <rect class="cls-1" x="3.44" y="12.57" width="5.7" height="1.09" rx=".23" ry=".23"/>
        </g>
        <path class="cls-1" d="M12.52,16H3.48c-1.1,0-1.99-.89-1.99-1.99V1.99c0-1.1.89-1.99,1.99-1.99h9.04c1.1,0,1.99.89,1.99,1.99v12.01c0,1.1-.89,1.99-1.99,1.99ZM3.48.63c-.75,0-1.36.61-1.36,1.36v12.01c0,.75.61,1.36,1.36,1.36h9.04c.75,0,1.36-.61,1.36-1.36V1.99c0-.75-.61-1.36-1.36-1.36H3.48Z"/>
        <path class="cls-1" d="M12.3,2.13H3.71c-.15,0-.27.12-.27.27v2.02h0v4.15c0,.15.12.27.27.27h8.58c.15,0,.27-.12.27-.27v-2.02h0V2.4c0-.15-.12-.27-.27-.27ZM4.18,2.61h7.64c.15,0,.27.12.27.27v1.26H3.91v-1.26c0-.15.12-.27.27-.27ZM12.09,4.61v1.77H3.91v-1.77h8.18ZM11.82,8.38h-7.64c-.15,0-.27-.12-.27-.27v-1.26h8.18v1.26c0,.15-.12.27-.27.27Z"/>
      </g>
    </g>
  </g>
</svg>