<?xml version="1.0" encoding="UTF-8"?>
<svg xmlns="http://www.w3.org/2000/svg" version="1.1" viewBox="0 0 16 16">
  <defs>
    <style>
      .cls-1 {
        opacity: .75;
      }

      .cls-2 {
        fill: #fff;
      }

      .cls-3 {
        opacity: .5;
      }
    </style>
  </defs>
  <!-- Generator: Adobe Illustrator 28.6.0, SVG Export Plug-In . SVG Version: 1.2.0 Build 709)  -->
  <g>
    <g id="Layer_1">
      <g>
        <g class="cls-3">
          <path class="cls-2" d="M10.81,11.56c-.32,0-.59-.21-.76-.37-.1-.1-.1-.26,0-.35.17-.16.44-.37.76-.37.51,0,1.86.24,1.86.54s-1.36.54-1.86.54Z"/>
        </g>
        <g class="cls-3">
          <path class="cls-2" d="M10.81,13.66c-.32,0-.59-.21-.76-.37-.1-.1-.1-.25,0-.35.17-.16.44-.37.76-.37.51,0,1.86.24,1.86.54s-1.36.54-1.86.54Z"/>
        </g>
        <g class="cls-3">
          <rect class="cls-2" x="3.44" y="10.47" width="5.7" height="1.09" rx=".23" ry=".23"/>
        </g>
        <g class="cls-3">
          <rect class="cls-2" x="3.44" y="12.57" width="5.7" height="1.09" rx=".23" ry=".23"/>
        </g>
        <g class="cls-1">
          <path class="cls-2" d="M3.71,2.13c-.15,0-.27.12-.27.27v6.18c0,.15.12.27.27.27h8.58c.15,0,.27-.12.27-.27V2.4c0-.15-.12-.27-.27-.27H3.71ZM4.18,2.61h7.64c.15,0,.27.12.27.27v2.68c-.09-.12-.19-.24-.28-.36-.41-.56-.84-1.14-1.45-1.14-.68,0-.82.68-.92,1.23-.11.58-.2.85-.46.85-.37,0-.73-.48-1.07-.95-.41-.56-.84-1.14-1.45-1.14-.68,0-.82.68-.92,1.23-.11.58-.2.85-.46.85-.36,0-.7-.48-1.02-.94-.03-.04-.06-.09-.09-.13-.03-.05-.05-.1-.05-.15v-2.04c0-.15.12-.27.27-.27Z"/>
        </g>
        <path class="cls-2" d="M12.52,16H3.48c-1.1,0-1.99-.89-1.99-1.99V1.99c0-1.1.89-1.99,1.99-1.99h9.04c1.1,0,1.99.89,1.99,1.99v12.01c0,1.1-.89,1.99-1.99,1.99ZM3.48.63c-.75,0-1.36.61-1.36,1.36v12.01c0,.75.61,1.36,1.36,1.36h9.04c.75,0,1.36-.61,1.36-1.36V1.99c0-.75-.61-1.36-1.36-1.36H3.48Z"/>
      </g>
    </g>
  </g>
</svg>