<?xml version="1.0" encoding="UTF-8"?>
<svg xmlns="http://www.w3.org/2000/svg" version="1.1" viewBox="0 0 800 800">
  <defs>
    <style>
      .cls-1 {
        fill: #fff;
      }

      .cls-2 {
        fill: #969696;
      }
    </style>
  </defs>
  <!-- Generator: Adobe Illustrator 28.6.0, SVG Export Plug-In . SVG Version: 1.2.0 Build 709)  -->
  <g>
    <g id="Layer_1">
      <g>
        <g>
          <path class="cls-1" d="M766.6,477.5c-30.9,38.3-72.6,66.8-120.5,81l-1.7.4c-10.8,0-40.7-5.6-40.7-20.4V243.2c0-25.6,59.2-103.9,81.5-132.4-147,38.5-189.6,105.6-189.6,105.6,0,0-11.2-24.2-54.7-24.2,22.1,20.9,37,49.2,40.7,80.8v.6s0,249.5,0,249.5c-23.2,16.5-50.5,28.8-80,35.3l-1.5.3c-28.2,0-42-11.5-42-33.1s1.3-292.7,1.3-292.7c0,0-40.7,15-40.7-68.7s76.6-91,81.2-94.1C206,104.5,33.4,283.1,33.4,477.4c94.8-167.4,158.1-179.5,175.7-179.5s26.7,9.1,26.7,29.3v249.5c0,31-60.3,25.9-80.2,22.9,73.7,109.7,244.4,122.2,244.4,122.2l46.4-46.4c-2.6-8.7-4-17.9-4-27.4,0-53.4,43.4-96.9,96.9-96.9s91,37.9,96.3,86.4c83.7-62.8,131-145.2,131-160.1Z"/>
          <path class="cls-1" d="M399.9,70.1s0,0-.2.1c.1,0,.2,0,.3,0h0Z"/>
        </g>
        <path class="cls-2" d="M539.3,565.1c-45.7,0-82.9,37.2-82.9,82.9s37.2,82.9,82.9,82.9,82.9-37.2,82.9-82.9-37.2-82.9-82.9-82.9ZM590.1,657.8c-8.9-.9-19.8-1.5-32.6-1.8-3.8,0-6.9,3-6.8,6.8.2,14,1.5,27.5,3.8,40.6.3,1.4.1,2.3-.4,2.5-7.8,1.1-14.6,2.4-20.5,4-4.5,1.2-8.9-2.6-8.3-7.2,1.5-11.9,2.8-24.9,3.8-38.9.3-4.1-3.1-7.5-7.2-7.2-9.9.8-20.2,2.6-31,5.4-1,.3-1.6.2-1.8-.2-1.9-5.2-4.4-12.4-7.6-21.6-1.6-4.6,2.1-9.4,7-8.9,9.1.9,20.8,2,35.1,3.3,3.9.3,7.3-2.7,7.3-6.7h0c0-11.2-.8-23.4-2.5-36.5-.2-1.5-.2-2.4,0-2.6,6.5-.8,12.6-1.8,18.2-3,4.5-1,8.7,2.8,8.1,7.4-1.4,10-2.5,21.8-3.2,35.4-.2,4,3,7.3,7,7.1,11.2-.6,22.5-2.3,33.8-5,.9-.3,1.5-.1,1.9.4,0,4.1,1,10.2,3,18.2,1.1,4.5-2.5,8.7-7.1,8.3Z"/>
      </g>
    </g>
  </g>
</svg>